<mxfile host="drawio-plugin" modified="2021-09-19T15:30:19.599Z" agent="5.0 (Windows NT 6.2; Win64; x64) AppleWebKit/537.36 (KHTML, like Gecko) Chrome/89.0.4389.114 Safari/537.36" etag="z0mvt1hN2eet-zElh1-F" version="14.7.4" type="embed"><diagram id="ZNJjrFNXOdktEOGlqNFi" name="Page-1"><mxGraphModel dx="722" dy="443" grid="1" gridSize="10" guides="1" tooltips="1" connect="1" arrows="1" fold="1" page="1" pageScale="1" pageWidth="850" pageHeight="1100" math="0" shadow="0"><root><mxCell id="0"/><mxCell id="1" parent="0"/><mxCell id="3" value="Person" style="swimlane;fontStyle=0;childLayout=stackLayout;horizontal=1;startSize=26;horizontalStack=0;resizeParent=1;resizeParentMax=0;resizeLast=0;collapsible=1;marginBottom=0;align=center;fontSize=14;" parent="1" vertex="1"><mxGeometry x="150" y="120" width="160" height="356" as="geometry"/></mxCell><mxCell id="4" value="ID" style="text;strokeColor=none;fillColor=none;spacingLeft=4;spacingRight=4;overflow=hidden;rotatable=0;points=[[0,0.5],[1,0.5]];portConstraint=eastwest;fontSize=12;" parent="3" vertex="1"><mxGeometry y="26" width="160" height="30" as="geometry"/></mxCell><mxCell id="18" value="TreeID" style="text;strokeColor=none;fillColor=none;spacingLeft=4;spacingRight=4;overflow=hidden;rotatable=0;points=[[0,0.5],[1,0.5]];portConstraint=eastwest;fontSize=12;" parent="3" vertex="1"><mxGeometry y="56" width="160" height="30" as="geometry"/></mxCell><mxCell id="26" style="edgeStyle=orthogonalEdgeStyle;rounded=0;orthogonalLoop=1;jettySize=auto;html=1;exitX=0;exitY=0.5;exitDx=0;exitDy=0;entryX=0;entryY=0.5;entryDx=0;entryDy=0;endArrow=none;endFill=0;" parent="3" source="12" target="4" edge="1"><mxGeometry relative="1" as="geometry"><Array as="points"><mxPoint x="-100" y="101"/><mxPoint x="-100" y="41"/></Array></mxGeometry></mxCell><mxCell id="33" value="HasChild" style="edgeLabel;html=1;align=center;verticalAlign=middle;resizable=0;points=[];" parent="26" vertex="1" connectable="0"><mxGeometry x="-0.5146" y="-1" relative="1" as="geometry"><mxPoint as="offset"/></mxGeometry></mxCell><mxCell id="12" value="FatherID" style="text;strokeColor=none;fillColor=none;spacingLeft=4;spacingRight=4;overflow=hidden;rotatable=0;points=[[0,0.5],[1,0.5]];portConstraint=eastwest;fontSize=12;" parent="3" vertex="1"><mxGeometry y="86" width="160" height="30" as="geometry"/></mxCell><mxCell id="27" value="HasChild" style="edgeStyle=orthogonalEdgeStyle;rounded=0;orthogonalLoop=1;jettySize=auto;html=1;exitX=0;exitY=0.5;exitDx=0;exitDy=0;entryX=0;entryY=0.5;entryDx=0;entryDy=0;endArrow=none;endFill=0;" parent="3" source="13" target="4" edge="1"><mxGeometry x="-0.6" y="-1" relative="1" as="geometry"><Array as="points"><mxPoint x="-130" y="131"/><mxPoint x="-130" y="41"/></Array><mxPoint as="offset"/></mxGeometry></mxCell><mxCell id="28" value="0..1" style="edgeLabel;html=1;align=center;verticalAlign=middle;resizable=0;points=[];" parent="27" vertex="1" connectable="0"><mxGeometry x="0.5594" y="1" relative="1" as="geometry"><mxPoint x="60" y="-10" as="offset"/></mxGeometry></mxCell><mxCell id="32" value="HasParent" style="edgeLabel;html=1;align=center;verticalAlign=middle;resizable=0;points=[];" parent="27" vertex="1" connectable="0"><mxGeometry x="0.7331" y="1" relative="1" as="geometry"><mxPoint x="-13" as="offset"/></mxGeometry></mxCell><mxCell id="13" value="MotherID" style="text;strokeColor=none;fillColor=none;spacingLeft=4;spacingRight=4;overflow=hidden;rotatable=0;points=[[0,0.5],[1,0.5]];portConstraint=eastwest;fontSize=12;" parent="3" vertex="1"><mxGeometry y="116" width="160" height="30" as="geometry"/></mxCell><mxCell id="5" value="FirstName" style="text;strokeColor=none;fillColor=none;spacingLeft=4;spacingRight=4;overflow=hidden;rotatable=0;points=[[0,0.5],[1,0.5]];portConstraint=eastwest;fontSize=12;" parent="3" vertex="1"><mxGeometry y="146" width="160" height="30" as="geometry"/></mxCell><mxCell id="6" value="LastName" style="text;strokeColor=none;fillColor=none;spacingLeft=4;spacingRight=4;overflow=hidden;rotatable=0;points=[[0,0.5],[1,0.5]];portConstraint=eastwest;fontSize=12;" parent="3" vertex="1"><mxGeometry y="176" width="160" height="30" as="geometry"/></mxCell><mxCell id="7" value="Patronymic" style="text;strokeColor=none;fillColor=none;spacingLeft=4;spacingRight=4;overflow=hidden;rotatable=0;points=[[0,0.5],[1,0.5]];portConstraint=eastwest;fontSize=12;" parent="3" vertex="1"><mxGeometry y="206" width="160" height="30" as="geometry"/></mxCell><mxCell id="9" value="MaidenName" style="text;strokeColor=none;fillColor=none;spacingLeft=4;spacingRight=4;overflow=hidden;rotatable=0;points=[[0,0.5],[1,0.5]];portConstraint=eastwest;fontSize=12;" parent="3" vertex="1"><mxGeometry y="236" width="160" height="30" as="geometry"/></mxCell><mxCell id="8" value="BirthDate" style="text;strokeColor=none;fillColor=none;spacingLeft=4;spacingRight=4;overflow=hidden;rotatable=0;points=[[0,0.5],[1,0.5]];portConstraint=eastwest;fontSize=12;" parent="3" vertex="1"><mxGeometry y="266" width="160" height="30" as="geometry"/></mxCell><mxCell id="10" value="DeathDate" style="text;strokeColor=none;fillColor=none;spacingLeft=4;spacingRight=4;overflow=hidden;rotatable=0;points=[[0,0.5],[1,0.5]];portConstraint=eastwest;fontSize=12;" parent="3" vertex="1"><mxGeometry y="296" width="160" height="30" as="geometry"/></mxCell><mxCell id="11" value="Bio" style="text;strokeColor=none;fillColor=none;spacingLeft=4;spacingRight=4;overflow=hidden;rotatable=0;points=[[0,0.5],[1,0.5]];portConstraint=eastwest;fontSize=12;" parent="3" vertex="1"><mxGeometry y="326" width="160" height="30" as="geometry"/></mxCell><mxCell id="14" value="Tree" style="swimlane;fontStyle=0;childLayout=stackLayout;horizontal=1;startSize=26;horizontalStack=0;resizeParent=1;resizeParentMax=0;resizeLast=0;collapsible=1;marginBottom=0;align=center;fontSize=14;fillColor=#2a2a2a;" parent="1" vertex="1"><mxGeometry x="550" y="120" width="160" height="116" as="geometry"/></mxCell><mxCell id="15" value="ID" style="text;strokeColor=none;fillColor=none;spacingLeft=4;spacingRight=4;overflow=hidden;rotatable=0;points=[[0,0.5],[1,0.5]];portConstraint=eastwest;fontSize=12;" parent="14" vertex="1"><mxGeometry y="26" width="160" height="30" as="geometry"/></mxCell><mxCell id="16" value="Name" style="text;strokeColor=none;fillColor=none;spacingLeft=4;spacingRight=4;overflow=hidden;rotatable=0;points=[[0,0.5],[1,0.5]];portConstraint=eastwest;fontSize=12;" parent="14" vertex="1"><mxGeometry y="56" width="160" height="30" as="geometry"/></mxCell><mxCell id="17" value="Description" style="text;strokeColor=none;fillColor=none;spacingLeft=4;spacingRight=4;overflow=hidden;rotatable=0;points=[[0,0.5],[1,0.5]];portConstraint=eastwest;fontSize=12;" parent="14" vertex="1"><mxGeometry y="86" width="160" height="30" as="geometry"/></mxCell><mxCell id="19" style="edgeStyle=orthogonalEdgeStyle;rounded=0;orthogonalLoop=1;jettySize=auto;html=1;endArrow=none;endFill=0;" parent="1" source="18" target="15" edge="1"><mxGeometry relative="1" as="geometry"/></mxCell><mxCell id="21" value="IsPartOfTree" style="edgeLabel;html=1;align=center;verticalAlign=middle;resizable=0;points=[];" parent="19" vertex="1" connectable="0"><mxGeometry x="-0.6712" relative="1" as="geometry"><mxPoint x="136" y="-31" as="offset"/></mxGeometry></mxCell><mxCell id="22" value="HasPerson(s)" style="edgeLabel;html=1;align=center;verticalAlign=middle;resizable=0;points=[];" parent="19" vertex="1" connectable="0"><mxGeometry x="0.7012" y="-2" relative="1" as="geometry"><mxPoint x="-140" y="27" as="offset"/></mxGeometry></mxCell><mxCell id="24" value="1" style="edgeLabel;html=1;align=center;verticalAlign=middle;resizable=0;points=[];" parent="19" vertex="1" connectable="0"><mxGeometry x="0.8864" y="1" relative="1" as="geometry"><mxPoint y="-10" as="offset"/></mxGeometry></mxCell><mxCell id="25" value="0..*" style="edgeLabel;html=1;align=center;verticalAlign=middle;resizable=0;points=[];" parent="19" vertex="1" connectable="0"><mxGeometry x="-0.9241" relative="1" as="geometry"><mxPoint x="4" y="-11" as="offset"/></mxGeometry></mxCell><mxCell id="35" value="0..*" style="edgeLabel;html=1;align=center;verticalAlign=middle;resizable=0;points=[];" parent="1" vertex="1" connectable="0"><mxGeometry x="133" y="210" as="geometry"/></mxCell><mxCell id="36" value="0..*" style="edgeLabel;html=1;align=center;verticalAlign=middle;resizable=0;points=[];" parent="1" vertex="1" connectable="0"><mxGeometry x="133" y="240" as="geometry"/></mxCell></root></mxGraphModel></diagram></mxfile>